<mxfile host="app.diagrams.net" modified="2020-10-24T14:29:35.966Z" agent="5.0 (Macintosh; Intel Mac OS X 10_13_6) AppleWebKit/537.36 (KHTML, like Gecko) Chrome/86.0.4240.111 Safari/537.36" etag="HGbkKZciqMahtRV-KqK5" version="13.8.1" type="github">
  <diagram id="NEcp_O4tT2zzfO9f3_Yq" name="Page-1">
    <mxGraphModel dx="1166" dy="649" grid="1" gridSize="10" guides="1" tooltips="1" connect="1" arrows="1" fold="1" page="1" pageScale="1" pageWidth="1169" pageHeight="1654" math="0" shadow="0">
      <root>
        <mxCell id="0" />
        <mxCell id="1" parent="0" />
        <mxCell id="h24fk9z5mG6OS2_oB9PC-1" value="" style="rounded=0;whiteSpace=wrap;html=1;shadow=1;dashed=1;fillColor=#f8cecc;strokeColor=#b85450;" vertex="1" parent="1">
          <mxGeometry x="340" y="130" width="370" height="210" as="geometry" />
        </mxCell>
        <mxCell id="h24fk9z5mG6OS2_oB9PC-62" value="" style="rounded=0;whiteSpace=wrap;html=1;shadow=1;dashed=1;" vertex="1" parent="1">
          <mxGeometry x="390" y="270" width="300" height="60" as="geometry" />
        </mxCell>
        <mxCell id="h24fk9z5mG6OS2_oB9PC-53" value="" style="rounded=0;whiteSpace=wrap;html=1;shadow=1;dashed=1;" vertex="1" parent="1">
          <mxGeometry x="390" y="140" width="300" height="120" as="geometry" />
        </mxCell>
        <mxCell id="h24fk9z5mG6OS2_oB9PC-44" style="edgeStyle=orthogonalEdgeStyle;rounded=0;orthogonalLoop=1;jettySize=auto;html=1;exitX=0;exitY=0.5;exitDx=0;exitDy=0;entryX=0.997;entryY=0.448;entryDx=0;entryDy=0;entryPerimeter=0;" edge="1" parent="1" source="h24fk9z5mG6OS2_oB9PC-43" target="h24fk9z5mG6OS2_oB9PC-1">
          <mxGeometry relative="1" as="geometry">
            <Array as="points">
              <mxPoint x="793" y="225" />
            </Array>
          </mxGeometry>
        </mxCell>
        <mxCell id="h24fk9z5mG6OS2_oB9PC-45" value="pull" style="edgeLabel;html=1;align=center;verticalAlign=middle;resizable=0;points=[];" vertex="1" connectable="0" parent="h24fk9z5mG6OS2_oB9PC-44">
          <mxGeometry x="0.1925" y="-1" relative="1" as="geometry">
            <mxPoint as="offset" />
          </mxGeometry>
        </mxCell>
        <mxCell id="h24fk9z5mG6OS2_oB9PC-43" value="" style="rounded=0;whiteSpace=wrap;html=1;shadow=1;dashed=1;" vertex="1" parent="1">
          <mxGeometry x="880" y="140" width="210" height="170" as="geometry" />
        </mxCell>
        <mxCell id="h24fk9z5mG6OS2_oB9PC-48" style="edgeStyle=orthogonalEdgeStyle;rounded=0;orthogonalLoop=1;jettySize=auto;html=1;entryX=0.5;entryY=0;entryDx=0;entryDy=0;entryPerimeter=0;" edge="1" parent="1" source="h24fk9z5mG6OS2_oB9PC-1" target="h24fk9z5mG6OS2_oB9PC-37">
          <mxGeometry relative="1" as="geometry" />
        </mxCell>
        <mxCell id="h24fk9z5mG6OS2_oB9PC-15" value="broker" style="text;html=1;strokeColor=none;fillColor=none;align=center;verticalAlign=middle;whiteSpace=wrap;rounded=0;shadow=1;dashed=1;" vertex="1" parent="1">
          <mxGeometry x="340" y="140" width="40" height="20" as="geometry" />
        </mxCell>
        <mxCell id="h24fk9z5mG6OS2_oB9PC-17" value="&lt;span&gt;group2&lt;/span&gt;" style="rounded=0;whiteSpace=wrap;html=1;shadow=1;" vertex="1" parent="1">
          <mxGeometry x="420" y="215" width="230" height="40" as="geometry" />
        </mxCell>
        <mxCell id="h24fk9z5mG6OS2_oB9PC-32" value="group1" style="rounded=0;whiteSpace=wrap;html=1;shadow=1;" vertex="1" parent="1">
          <mxGeometry x="420" y="160" width="230" height="40" as="geometry" />
        </mxCell>
        <mxCell id="h24fk9z5mG6OS2_oB9PC-49" value="push" style="edgeStyle=orthogonalEdgeStyle;rounded=0;orthogonalLoop=1;jettySize=auto;html=1;exitX=1;exitY=0.5;exitDx=0;exitDy=0;entryX=0;entryY=0.471;entryDx=0;entryDy=0;entryPerimeter=0;" edge="1" parent="1" source="h24fk9z5mG6OS2_oB9PC-35" target="h24fk9z5mG6OS2_oB9PC-1">
          <mxGeometry relative="1" as="geometry" />
        </mxCell>
        <mxCell id="h24fk9z5mG6OS2_oB9PC-35" value="producer" style="rounded=0;whiteSpace=wrap;html=1;shadow=1;fillColor=#d5e8d4;strokeColor=#82b366;" vertex="1" parent="1">
          <mxGeometry x="60" y="200" width="120" height="60" as="geometry" />
        </mxCell>
        <mxCell id="h24fk9z5mG6OS2_oB9PC-37" value="message data" style="shape=cylinder3;whiteSpace=wrap;html=1;boundedLbl=1;backgroundOutline=1;size=15;shadow=1;fillColor=#e1d5e7;strokeColor=#9673a6;" vertex="1" parent="1">
          <mxGeometry x="477.5" y="440" width="95" height="100" as="geometry" />
        </mxCell>
        <mxCell id="h24fk9z5mG6OS2_oB9PC-41" value="consumer" style="rounded=0;whiteSpace=wrap;html=1;shadow=1;fillColor=#d5e8d4;strokeColor=#82b366;" vertex="1" parent="1">
          <mxGeometry x="930" y="160" width="120" height="60" as="geometry" />
        </mxCell>
        <mxCell id="h24fk9z5mG6OS2_oB9PC-42" value="consumer" style="rounded=0;whiteSpace=wrap;html=1;shadow=1;fillColor=#d5e8d4;strokeColor=#82b366;" vertex="1" parent="1">
          <mxGeometry x="930" y="240" width="120" height="60" as="geometry" />
        </mxCell>
        <mxCell id="h24fk9z5mG6OS2_oB9PC-51" value="group" style="text;html=1;strokeColor=none;fillColor=none;align=center;verticalAlign=middle;whiteSpace=wrap;rounded=0;shadow=1;dashed=1;" vertex="1" parent="1">
          <mxGeometry x="890" y="150" width="40" height="20" as="geometry" />
        </mxCell>
        <mxCell id="h24fk9z5mG6OS2_oB9PC-52" value="&lt;h1&gt;xxl-mq&lt;/h1&gt;&lt;p&gt;&lt;br&gt;&lt;/p&gt;" style="text;html=1;strokeColor=none;fillColor=none;spacing=5;spacingTop=-20;whiteSpace=wrap;overflow=hidden;rounded=0;shadow=1;dashed=1;" vertex="1" parent="1">
          <mxGeometry x="450" y="60" width="190" height="50" as="geometry" />
        </mxCell>
        <mxCell id="h24fk9z5mG6OS2_oB9PC-60" value="topic" style="text;html=1;strokeColor=none;fillColor=none;align=center;verticalAlign=middle;whiteSpace=wrap;rounded=0;shadow=1;dashed=1;" vertex="1" parent="1">
          <mxGeometry x="390" y="140" width="40" height="20" as="geometry" />
        </mxCell>
        <mxCell id="h24fk9z5mG6OS2_oB9PC-61" value="&lt;span&gt;group3&lt;/span&gt;" style="rounded=0;whiteSpace=wrap;html=1;shadow=1;" vertex="1" parent="1">
          <mxGeometry x="420" y="280" width="230" height="40" as="geometry" />
        </mxCell>
        <mxCell id="h24fk9z5mG6OS2_oB9PC-64" value="topic 2" style="text;html=1;strokeColor=none;fillColor=none;align=center;verticalAlign=middle;whiteSpace=wrap;rounded=0;shadow=1;dashed=1;" vertex="1" parent="1">
          <mxGeometry x="390" y="270" width="40" height="20" as="geometry" />
        </mxCell>
        <mxCell id="h24fk9z5mG6OS2_oB9PC-68" value="&lt;div&gt;&lt;ol&gt;&lt;li&gt;&lt;span&gt;多实例相同分组 并行消费&lt;/span&gt;&lt;/li&gt;&lt;li&gt;&lt;span&gt;多实力相同分组，消息分片唯一，串行消费&lt;/span&gt;&lt;/li&gt;&lt;/ol&gt;&lt;/div&gt;" style="text;html=1;strokeColor=none;fillColor=none;align=left;verticalAlign=middle;whiteSpace=wrap;rounded=0;shadow=1;dashed=1;" vertex="1" parent="1">
          <mxGeometry x="900" y="360" width="210" height="100" as="geometry" />
        </mxCell>
        <mxCell id="h24fk9z5mG6OS2_oB9PC-69" value="&lt;ol&gt;&lt;li&gt;广播消费，所有消费组都可以处理&lt;/li&gt;&lt;/ol&gt;" style="text;html=1;strokeColor=none;fillColor=none;align=left;verticalAlign=middle;whiteSpace=wrap;rounded=0;shadow=1;dashed=1;" vertex="1" parent="1">
          <mxGeometry x="40" y="360" width="210" height="100" as="geometry" />
        </mxCell>
      </root>
    </mxGraphModel>
  </diagram>
</mxfile>
